<svg width="20" height="21" viewBox="0 0 20 21" fill="none" xmlns="http://www.w3.org/2000/svg">
<path fill-rule="evenodd" clip-rule="evenodd" d="M2.00078 16.7499H3.25078V20.401L8.72978 16.7499H17.8048C18.8817 16.7499 19.7548 15.8769 19.7548 14.7999V1.99492C19.7548 0.917967 18.8817 0.0449219 17.8048 0.0449219H2.00078C0.923826 0.0449219 0.0507812 0.917967 0.0507812 1.99492V14.7999C0.0507812 15.8769 0.923826 16.7499 2.00078 16.7499ZM17.8048 15.2499H8.27578L4.75078 17.5989V15.2499H2.00078C1.75225 15.2499 1.55078 15.0485 1.55078 14.7999V1.99492C1.55078 1.74639 1.75225 1.54492 2.00078 1.54492H17.8048C18.0533 1.54492 18.2548 1.74639 18.2548 1.99492V14.7999C18.2548 15.0485 18.0533 15.2499 17.8048 15.2499Z" fill="#3483FA"/>
</svg>
