<svg width="32" height="32" viewBox="0 0 32 32" fill="none" xmlns="http://www.w3.org/2000/svg">
<path fill-rule="evenodd" clip-rule="evenodd" d="M28.333 6.83333H4.33301C3.50458 6.83333 2.83301 7.50491 2.83301 8.33333V8.72219H29.833V8.33333C29.833 7.50491 29.1614 6.83333 28.333 6.83333ZM29.833 10.2222H2.83301V24.3333C2.83301 25.1618 3.50458 25.8333 4.33301 25.8333H4.86947V24.0476C4.86947 21.9766 6.5484 20.2976 8.61947 20.2976H15.4766C17.5477 20.2976 19.2266 21.9766 19.2266 24.0476V25.8333H28.333C29.1614 25.8333 29.833 25.1618 29.833 24.3333V10.2222ZM17.7266 25.8333H6.36947V24.0476C6.36947 22.805 7.37682 21.7976 8.61947 21.7976H15.4766C16.7192 21.7976 17.7266 22.805 17.7266 24.0476V25.8333ZM4.33301 5.33333C2.67615 5.33333 1.33301 6.67648 1.33301 8.33333V24.3333C1.33301 25.9902 2.67615 27.3333 4.33301 27.3333H28.333C29.9899 27.3333 31.333 25.9902 31.333 24.3333V8.33333C31.333 6.67648 29.9899 5.33333 28.333 5.33333H4.33301ZM14.8328 15.8096C14.8328 17.2639 13.6176 18.5001 12.0471 18.5001C10.4766 18.5001 9.26139 17.2639 9.26139 15.8096C9.26139 14.3553 10.4766 13.1191 12.0471 13.1191C13.6176 13.1191 14.8328 14.3553 14.8328 15.8096ZM16.3328 15.8096C16.3328 18.1239 14.414 20.0001 12.0471 20.0001C9.68017 20.0001 7.76139 18.1239 7.76139 15.8096C7.76139 13.4953 9.68017 11.6191 12.0471 11.6191C14.414 11.6191 16.3328 13.4953 16.3328 15.8096ZM19.5465 13.2619H20.2965L25.2251 13.2619H25.9751V14.7619H25.2251L20.2965 14.7619H19.5465V13.2619ZM20.2965 16.4047H19.5465V17.9047H20.2965H25.2251H25.9751V16.4047H25.2251H20.2965Z" fill="#3483FA"/>
</svg>
