<svg width="20" height="21" viewBox="0 0 20 21" fill="none" xmlns="http://www.w3.org/2000/svg">
<path fill-rule="evenodd" clip-rule="evenodd" d="M9.749 14.0896C13.4775 14.0896 16.5 10.9915 16.5 7.16978C16.5 3.34809 13.4775 0.25 9.749 0.25C6.02053 0.25 2.998 3.34809 2.998 7.16978C2.998 10.9915 6.02053 14.0896 9.749 14.0896ZM9.749 12.5521C6.84895 12.5521 4.498 10.1423 4.498 7.16978C4.498 4.19723 6.84895 1.7875 9.749 1.7875C12.649 1.7875 15 4.19723 15 7.16978C15 10.1423 12.649 12.5521 9.749 12.5521Z" fill="#3483FA"/>
<path d="M3.73045 17.1646C2.49861 17.1646 1.5 18.1881 1.5 19.4508V20.2195H0V19.4508C0 17.339 1.67018 15.6271 3.73045 15.6271H15.75C17.8211 15.6271 19.5 17.348 19.5 19.4708V20.2396H18V19.4708C18 18.1971 16.9926 17.1646 15.75 17.1646H3.73045Z" fill="#3483FA"/>
</svg>
