<svg width="24" height="24" viewBox="0 0 24 24" fill="none" xmlns="http://www.w3.org/2000/svg">
<path d="M13.4999 15C13.4999 15.8284 12.8283 16.5 11.9999 16.5C11.1715 16.5 10.4999 15.8284 10.4999 15C10.4999 14.1716 11.1715 13.5 11.9999 13.5C12.8283 13.5 13.4999 14.1716 13.4999 15Z" fill="#3483FA"/>
<path fill-rule="evenodd" clip-rule="evenodd" d="M17.2519 6.002V8.98398H19.4632V18C19.4632 20.8995 17.1126 23.25 14.2132 23.25H9.78662C6.88713 23.25 4.53662 20.8995 4.53662 18V8.98398H6.74789V6.002C6.74789 3.1014 9.09929 0.75 11.9999 0.75C14.9005 0.75 17.2519 3.1014 17.2519 6.002ZM8.24789 8.98398V6.002C8.24789 3.92983 9.92771 2.25 11.9999 2.25C14.0721 2.25 15.7519 3.92983 15.7519 6.002V8.98398H8.24789ZM17.9632 10.484V18C17.9632 20.0711 16.2842 21.75 14.2132 21.75H9.78662C7.71555 21.75 6.03662 20.0711 6.03662 18V10.484H17.9632Z" fill="#3483FA"/>
</svg>
