<svg width="32" height="32" viewBox="0 0 32 32" fill="none" xmlns="http://www.w3.org/2000/svg">
<path fill-rule="evenodd" clip-rule="evenodd" d="M15.999 21.251C21.384 21.251 25.7495 16.8856 25.7495 11.5005C25.7495 6.11545 21.384 1.75 15.999 1.75C10.6139 1.75 6.24845 6.11545 6.24845 11.5005C6.24845 16.8856 10.6139 21.251 15.999 21.251ZM15.999 19.751C11.4423 19.751 7.74845 16.0571 7.74845 11.5005C7.74845 6.94387 11.4423 3.25 15.999 3.25C20.5556 3.25 24.2495 6.94387 24.2495 11.5005C24.2495 16.0571 20.5556 19.751 15.999 19.751Z" fill="black" fill-opacity="0.9"/>
<path d="M3.25195 27.9445V30.2157H1.75195V27.9445C1.75195 25.4869 3.74429 23.4946 6.20195 23.4946H25.799C28.2566 23.4946 30.249 25.4869 30.249 27.9445V30.25H28.749V27.9445C28.749 26.3153 27.4282 24.9946 25.799 24.9946H6.20195C4.57271 24.9946 3.25195 26.3153 3.25195 27.9445Z" fill="black" fill-opacity="0.9"/>
</svg>
